<svg xmlns="http://www.w3.org/2000/svg" width="15.57" height="18" viewBox="0 0 15.57 18">
  <g id="Copy" transform="translate(-117.252 -10.932)">
    <path id="Path_24" data-name="Path 24" d="M129.915,91.4a1.432,1.432,0,0,0-1.432-1.432h-9.819a1.411,1.411,0,0,0-1.411,1.411v12.534a1.411,1.411,0,0,0,1.411,1.411h9.84a1.411,1.411,0,0,0,1.411-1.411V91.4Zm-1.062,1.327v10.722a.813.813,0,0,1-.813.813h-8.913a.813.813,0,0,1-.813-.813V91.84a.813.813,0,0,1,.813-.813h8.895a.813.813,0,0,1,.813.8Z" transform="translate(0 -76.39)" fill="#0086e9"/>
    <path id="Path_25" data-name="Path 25" d="M202.579,189.583h-6.607a.408.408,0,0,1,0-.817h6.607a.408.408,0,1,1,0,.817Z" transform="translate(-75.692 -171.886)" fill="#0086e9"/>
    <path id="Path_26" data-name="Path 26" d="M202.579,248.853h-6.607a.408.408,0,0,1,0-.817h6.607a.408.408,0,0,1,0,.817Z" transform="translate(-75.692 -229.173)" fill="#0086e9"/>
    <path id="Path_27" data-name="Path 27" d="M202.579,308.123h-6.607a.408.408,0,0,1,0-.817h6.607a.408.408,0,1,1,0,.817Z" transform="translate(-75.692 -286.461)" fill="#0086e9"/>
    <path id="Path_28" data-name="Path 28" d="M202.579,367.383h-6.607a.408.408,0,0,1,0-.817h6.607a.408.408,0,1,1,0,.817Z" transform="translate(-75.692 -343.738)" fill="#0086e9"/>
    <path id="Path_29" data-name="Path 29" d="M202.579,426.663h-6.607a.408.408,0,0,1,0-.817h6.607a.408.408,0,1,1,0,.817Z" transform="translate(-75.692 -401.036)" fill="#0086e9"/>
    <path id="Path_30" data-name="Path 30" d="M215.419,10.932H205.6a1.411,1.411,0,0,0-1.411,1.411v.571h1.062v-.108a.813.813,0,0,1,.813-.813h8.895a.813.813,0,0,1,.813.8l.018.9V24.414a.813.813,0,0,1-.813.813H214.6v1.062h.836a1.411,1.411,0,0,0,1.411-1.411V12.364a1.432,1.432,0,0,0-1.432-1.432Z" transform="translate(-84.029)" fill="#0086e9"/>
  </g>
</svg>
