<svg xmlns="http://www.w3.org/2000/svg" width="18" height="18" viewBox="0 0 18 18">
  <g id="Create" transform="translate(-84 -14)">
    <path id="Path_37" data-name="Path 37" d="M97.713,14H88.306A4.315,4.315,0,0,0,84,18.306v9.389A4.315,4.315,0,0,0,88.306,32h9.389A4.315,4.315,0,0,0,102,27.694V18.306A4.286,4.286,0,0,0,97.713,14ZM96.5,24.11H94.11V26.48a1.1,1.1,0,0,1-2.2,0V24.11H89.52a1.1,1.1,0,0,1,0-2.2H91.89V19.52a1.1,1.1,0,0,1,2.2,0V21.89h2.371a1.1,1.1,0,0,1,1.1,1.1A1.086,1.086,0,0,1,96.5,24.11Z" fill="#0086e9"/>
  </g>
</svg>
