<svg xmlns="http://www.w3.org/2000/svg" width="21" height="21" viewBox="0 0 21 21">
  <g id="Create" transform="translate(-84 -14)">
    <path id="Path_37" data-name="Path 37" d="M100,14H89.023A5.034,5.034,0,0,0,84,19.023V29.977A5.034,5.034,0,0,0,89.023,35H99.977A5.034,5.034,0,0,0,105,29.977V19.023A5,5,0,0,0,100,14Z" transform="translate(0)" fill="#0086e9" opacity="0"/>
    <path id="Path_113" data-name="Path 113" d="M98.583,25.795H95.795v2.766a1.283,1.283,0,0,1-2.567,0V25.795H90.439a1.283,1.283,0,0,1,0-2.567h2.766V20.439a1.283,1.283,0,0,1,2.567,0v2.766h2.766a1.284,1.284,0,0,1,1.283,1.283,1.267,1.267,0,0,1-1.239,1.306Z" fill="#0086e9"/>
  </g>
</svg>
