<svg xmlns="http://www.w3.org/2000/svg" width="21" height="21" viewBox="0 0 21 21">
  <g id="Create" transform="translate(-84 -14)">
    <path id="Path_37" data-name="Path 37" d="M99.151,25.973H95.977V29.12a1.461,1.461,0,0,1-2.922,0V25.973H89.881a1.46,1.46,0,1,1,0-2.921h3.149V19.88a1.461,1.461,0,0,1,2.922,0v3.147H99.1a1.462,1.462,0,0,1,1.461,1.46,1.442,1.442,0,0,1-1.411,1.485Z" transform="translate(0)" fill="#0086e9"/>
    <path id="Path_111" data-name="Path 111" d="M100,14H89.023A5.034,5.034,0,0,0,84,19.023V29.977A5.034,5.034,0,0,0,89.023,35H99.977A5.034,5.034,0,0,0,105,29.977V19.023A5,5,0,0,0,100,14ZM98.583,25.794H95.794V28.56a1.283,1.283,0,0,1-2.567,0V25.794H90.439a1.283,1.283,0,1,1,0-2.567h2.766V20.439a1.283,1.283,0,0,1,2.567,0v2.766h2.766a1.284,1.284,0,0,1,1.283,1.283,1.267,1.267,0,0,1-1.239,1.306Z" transform="translate(0 0)" fill="#0086e9" opacity="0"/>
  </g>
</svg>
