<svg xmlns="http://www.w3.org/2000/svg" width="14.098" height="18.278" viewBox="0 0 14.098 18.278">
  <g id="Delete" transform="translate(-6.386 -4.874)">
    <g id="Shape" transform="translate(6.386 4.874)">
      <path id="Path_3" data-name="Path 3" d="M5.484,0A1.189,1.189,0,0,0,4.31,1.192v.795H1.24a.349.349,0,0,0-.123,0H.4a.39.39,0,0,0-.344.2.4.4,0,0,0,0,.4.39.39,0,0,0,.344.2H.788v14.3a1.189,1.189,0,0,0,1.174,1.192H12.136a1.189,1.189,0,0,0,1.174-1.192V2.781H13.7a.39.39,0,0,0,.344-.2.4.4,0,0,0,0-.4.39.39,0,0,0-.344-.2h-.717a.385.385,0,0,0-.128,0H9.788V1.192A1.189,1.189,0,0,0,8.614,0Zm0,.795h3.13a.393.393,0,0,1,.391.4v.795H5.093V1.192A.393.393,0,0,1,5.484.795ZM1.571,2.781H4.635a.385.385,0,0,0,.128,0H9.331a.385.385,0,0,0,.128,0h3.069v14.3a.393.393,0,0,1-.391.4H1.962a.393.393,0,0,1-.391-.4ZM4.7,4.763a.4.4,0,0,0-.385.4V15.1a.4.4,0,0,0,.194.349.386.386,0,0,0,.395,0,.4.4,0,0,0,.194-.349V5.165a.4.4,0,0,0-.115-.287A.389.389,0,0,0,4.7,4.763Zm2.348,0a.4.4,0,0,0-.385.4V15.1a.4.4,0,0,0,.194.349.386.386,0,0,0,.395,0A.4.4,0,0,0,7.44,15.1V5.165a.4.4,0,0,0-.115-.287A.389.389,0,0,0,7.043,4.763Zm2.348,0a.4.4,0,0,0-.385.4V15.1a.4.4,0,0,0,.194.349.386.386,0,0,0,.395,0,.4.4,0,0,0,.194-.349V5.165a.4.4,0,0,0-.115-.287A.389.389,0,0,0,9.391,4.763Z" fill="#0086e9"/>
    </g>
  </g>
</svg>
