<svg xmlns="http://www.w3.org/2000/svg" width="21" height="21" viewBox="0 0 21 21">
  <g id="Delete" transform="translate(-108.754 -26.29)">
    <path id="Path_37" data-name="Path 37" d="M100,14H89.023A5.034,5.034,0,0,0,84,19.023V29.977A5.034,5.034,0,0,0,89.023,35H99.977A5.034,5.034,0,0,0,105,29.977V19.023A5,5,0,0,0,100,14Z" transform="translate(24.754 12.29)" fill="#ff173a" opacity="0"/>
    <path id="Path_60" data-name="Path 60" d="M115.413,33.22h0Zm4.771-2.43h-1.393a.845.845,0,0,0-.867.822v.078h-4.005a.42.42,0,0,0-.431.409v.72a.42.42,0,0,0,.431.409h11.138a.444.444,0,0,0,.3-.12.4.4,0,0,0,.126-.289V32.1a.4.4,0,0,0-.126-.289.443.443,0,0,0-.3-.12h-4.005v-.078a.8.8,0,0,0-.254-.582.892.892,0,0,0-.613-.241Zm-.488,4.046a.281.281,0,0,1,.288.274v5.916a.267.267,0,0,1-.085.194.3.3,0,0,1-.2.08h-.415a.3.3,0,0,1-.2-.08.267.267,0,0,1-.085-.194V35.11a.281.281,0,0,1,.288-.273h.416Zm-2.591-.01-.006.005h0a.282.282,0,0,1,.288.264l.216,5.912a.266.266,0,0,1-.077.2h0a.3.3,0,0,1-.2.087l-.415.014h-.01a.3.3,0,0,1-.2-.074.267.267,0,0,1-.092-.191l-.215-5.912a.28.28,0,0,1,.279-.283l.415-.014h.009Zm4.775.005h.007l.415.013a.28.28,0,0,1,.279.283l-.215,5.912a.267.267,0,0,1-.091.191.3.3,0,0,1-.2.074h-.01l-.415-.014h0a.3.3,0,0,1-.2-.087.266.266,0,0,1-.077-.2l.216-5.912a.281.281,0,0,1,.287-.264h0Zm-7.411-1,.413,7.035v.013a2.056,2.056,0,0,0,.587,1.535h0a3.277,3.277,0,0,0,1.826.377h4.383a3.278,3.278,0,0,0,1.826-.377h0a2.056,2.056,0,0,0,.587-1.535v-.013l.413-7.035Z" transform="translate(-0.234 0)" fill="#ff173a"/>
  </g>
</svg>
