<svg xmlns="http://www.w3.org/2000/svg" width="20.245" height="20.563" viewBox="0 0 20.245 20.563">
  <g id="Edit" transform="translate(-3.375 -3.427)">
    <g id="Shape" transform="translate(3.375 3.427)">
      <path id="Path_4" data-name="Path 4" d="M18.1,0a2.122,2.122,0,0,0-1.513.643l-.358.363L19.26,4.079l.358-.363a2.2,2.2,0,0,0,0-3.073A2.125,2.125,0,0,0,18.1,0ZM15.559,1.8a.44.44,0,0,0-.261.14L1.018,16.455a.457.457,0,0,0-.124.2L.014,20a.45.45,0,0,0,.115.428.434.434,0,0,0,.421.117l3.3-.894a.448.448,0,0,0,.193-.126l14.293-14.5a.454.454,0,0,0,.007-.636.438.438,0,0,0-.626-.007L3.508,18.816,1.72,17,15.93,2.57a.452.452,0,0,0,.1-.5A.44.44,0,0,0,15.6,1.8Z" fill="#0086e9"/>
    </g>
  </g>
</svg>
