<svg xmlns="http://www.w3.org/2000/svg" width="360" height="360" viewBox="0 0 360 360">
  <g id="Empty_Folder" data-name="Empty Folder" transform="translate(-704 -348)">
    <rect id="Rectangle_32" data-name="Rectangle 32" width="360" height="360" rx="180" transform="translate(704 348)" fill="#f7f7f7"/>
    <g id="Empty_Folder-2" data-name="Empty Folder" transform="translate(694.099 393.035)">
      <path id="Path_45" data-name="Path 45" d="M268.991,66.036a.948.948,0,0,0,.632-.158c1.42-.947,2.682-1.894,4.1-2.682a1.029,1.029,0,1,0-1.105-1.735c-1.42.788-2.84,1.735-4.259,2.682a.889.889,0,0,0-.158,1.42.869.869,0,0,0,.788.473" transform="translate(-109.312 -10.028)" fill="#3e3e3c"/>
      <path id="Path_46" data-name="Path 46" d="M446.443,62.437a19.879,19.879,0,0,1,4.417,3,27.045,27.045,0,0,1,3,3,.951.951,0,0,0,1.42,0,1,1,0,0,0,.158-1.42,21.138,21.138,0,0,0-3.312-3.155,23.435,23.435,0,0,0-4.891-3.155.872.872,0,0,0-1.262.473.992.992,0,0,0,.472,1.263" transform="translate(-218.611 -9.585)" fill="#3e3e3c"/>
      <path id="Path_47" data-name="Path 47" d="M364.859,75.575a1.028,1.028,0,0,0,.315,1.42.578.578,0,0,0,.473.158,1.366,1.366,0,0,0,.947-.473,22.25,22.25,0,0,1,6.468-6.941A1.029,1.029,0,1,0,371.957,68a22.8,22.8,0,0,0-7.1,7.571" transform="translate(-168.739 -14.046)" fill="#3e3e3c"/>
      <path id="Path_48" data-name="Path 48" d="M482.348,138.98a1.042,1.042,0,0,0-1.1.947,77.755,77.755,0,0,1-1.735,9.623,1.073,1.073,0,0,0,.632,1.262h.315a1,1,0,0,0,.947-.788,60.984,60.984,0,0,0,1.894-9.938,1.156,1.156,0,0,0-.948-1.105" transform="translate(-239.216 -57.731)" fill="#3e3e3c"/>
      <path id="Path_49" data-name="Path 49" d="M393.45,68.08a.869.869,0,0,0,.789.473.578.578,0,0,0,.473-.158,1.027,1.027,0,0,0,.315-1.42,26.784,26.784,0,0,0-7.1-7.573,1.01,1.01,0,1,0-1.262,1.578,25.952,25.952,0,0,1,6.784,7.1" transform="translate(-182.028 -8.76)" fill="#3e3e3c"/>
      <path id="Path_50" data-name="Path 50" d="M401.564,58.244h.315a26.415,26.415,0,0,1,7.729-1.262h1.735c.632,0,1.1-.315,1.1-.947a1.042,1.042,0,0,0-.947-1.1c-.632,0-1.262-.158-1.893-.158a26.586,26.586,0,0,0-8.361,1.42,1.074,1.074,0,0,0-.632,1.262,1,1,0,0,0,.95.788" transform="translate(-190.771 -6.023)" fill="#3e3e3c"/>
      <path id="Path_51" data-name="Path 51" d="M399.517,106.625a1.027,1.027,0,0,0-.315,1.42.869.869,0,0,0,.789.473.579.579,0,0,0,.473-.158,10.189,10.189,0,0,0,4.891-8.993v-.315a.947.947,0,0,0-1.894,0v.315a8.4,8.4,0,0,1-3.944,7.258" transform="translate(-189.827 -32.632)" fill="#3e3e3c"/>
      <path id="Path_52" data-name="Path 52" d="M363.749,108.354c-.158-.315-.315-.788-.473-1.1a1,1,0,0,0-1.894.63,5.59,5.59,0,0,0,.632,1.42,10.576,10.576,0,0,0,7.1,5.679h.158a.883.883,0,0,0,.947-.788,1.036,1.036,0,0,0-.788-1.262,7.592,7.592,0,0,1-5.681-4.575" transform="translate(-166.68 -37.835)" fill="#3e3e3c"/>
      <path id="Path_53" data-name="Path 53" d="M480.1,104.384a1.018,1.018,0,0,0,.947.947h.158a1.055,1.055,0,0,0,.947-1.1,28.9,28.9,0,0,0-2.682-9.938.953.953,0,0,0-1.735.788,29.964,29.964,0,0,1,2.365,9.306" transform="translate(-238.077 -29.919)" fill="#3e3e3c"/>
      <path id="Path_54" data-name="Path 54" d="M343.744,47.015a37.367,37.367,0,0,1,9.466,1.894h.315a1.065,1.065,0,0,0,.947-.632.941.941,0,0,0-.632-1.262,34.8,34.8,0,0,0-10.1-2.05,1.042,1.042,0,0,0-1.1.947,1.906,1.906,0,0,0,1.1,1.1" transform="translate(-155.197)" fill="#3e3e3c"/>
      <path id="Path_55" data-name="Path 55" d="M298.559,50.562h.315a42.13,42.13,0,0,1,9.466-2.524c.473-.158.947-.632.788-1.1s-.632-.947-1.1-.788a42.914,42.914,0,0,0-9.781,2.682,1.074,1.074,0,0,0-.632,1.262,1.809,1.809,0,0,0,.947.472" transform="translate(-127.521 -0.706)" fill="#3e3e3c"/>
      <path id="Path_56" data-name="Path 56" d="M275.948,285.768a3.078,3.078,0,0,1-3,2.84H107.621a2.456,2.456,0,0,1-2.524-2.367l-8.2-85.347a3,3,0,0,1,2.84-3.155h.947l179.687.158a3.863,3.863,0,0,1,3.786,3.944Zm-50.165-91.816s1.735-2.84,4.1-6.784a1.029,1.029,0,0,1,1.735,1.105c-2.367,4.1-4.1,6.784-4.1,6.941a.869.869,0,0,1-.788.473.579.579,0,0,1-.473-.158,1.154,1.154,0,0,1-.473-1.577Zm57.741-2.84H281V177.545a5.655,5.655,0,0,0-5.679-5.679H239.668a58.519,58.519,0,0,1-3,6.626,1.067,1.067,0,0,1-.947.632.579.579,0,0,1-.473-.158,1.056,1.056,0,0,1-.473-1.262,59.042,59.042,0,0,0,2.524-5.837H152.112l-5.049-8.046a4.9,4.9,0,0,0-4.417-2.367H101.628a4.177,4.177,0,0,0-4.1,4.1v26.03H95.949a9.212,9.212,0,0,0-5.994,9.623l8.519,86.926a9.237,9.237,0,0,0,9.15,8.361h164.7a9.124,9.124,0,0,0,9.15-8.361l8.519-86.926a8.128,8.128,0,0,0-6.469-10.1Z" transform="translate(0 -71.531)" fill="#0086e9"/>
      <path id="Path_57" data-name="Path 57" d="M237.295,80.952a1.919,1.919,0,0,0,2.367.947l6.626-3.155a1.8,1.8,0,0,0-1.42-3.314l-6.626,3.155a1.686,1.686,0,0,0-.947,2.367" transform="translate(-90.394 -18.635)" fill="#0086e9"/>
      <path id="Path_58" data-name="Path 58" d="M224.512,60.361l4.575,1.894,5.837-2.682L235.4,55c-.158-2.05-1.1-3-2.367-3.155-1.42-.315-5.521,1.1-3.944,3.786-2.209-2.524-4.417-.947-5.364-.158-1.105.948-1.105,3.63.788,4.892" transform="translate(-81.714 -4.196)" fill="#0086e9"/>
      <path id="Path_59" data-name="Path 59" d="M255.164,95.167c.632-1.1.473-2.367-.947-3.786L250.273,88.7l-5.837,2.682-1.577,4.575c-.315,2.209,1.894,4.1,3.155,3.786s3.944-.788,3.47-4.1c1.262,2.84,4.891.79,5.679-.472" transform="translate(-93.906 -26.855)" fill="#0086e9"/>
    </g>
  </g>
</svg>
