<svg id="Locked" xmlns="http://www.w3.org/2000/svg" width="46" height="46" viewBox="0 0 46 46">
  <rect id="Rectangle" width="45" height="45" transform="translate(0.5 0.5)" fill="#979797" stroke="#979797" stroke-width="1" opacity="0"/>
  <path id="Icon_material-lock" data-name="Icon material-lock" d="M26,11.5H24.571V8.643a7.143,7.143,0,0,0-14.286,0V11.5H8.857A2.866,2.866,0,0,0,6,14.357V28.643A2.866,2.866,0,0,0,8.857,31.5H26a2.866,2.866,0,0,0,2.857-2.857V14.357A2.866,2.866,0,0,0,26,11.5ZM17.429,24.357A2.857,2.857,0,1,1,20.286,21.5,2.866,2.866,0,0,1,17.429,24.357ZM21.857,11.5H13V8.643a4.429,4.429,0,0,1,8.857,0Z" transform="translate(5.571 6.5)" fill="#3e3e3c"/>
</svg>
