<svg id="Logout" xmlns="http://www.w3.org/2000/svg" width="24" height="24" viewBox="0 0 24 24">
  <rect id="Rectangle" width="23" height="23" transform="translate(0.5 0.5)" fill="#979797" stroke="#979797" stroke-width="1" opacity="0"/>
  <g id="Logout-2" data-name="Logout" transform="translate(3 3)">
    <path id="Shape" d="M13.57,14.779V16.33A1.694,1.694,0,0,1,11.856,18H1.715A1.7,1.7,0,0,1,0,16.33V1.672A1.694,1.694,0,0,1,1.715,0H11.856A1.7,1.7,0,0,1,13.57,1.672V3.223a.857.857,0,1,1-1.714,0V1.672L1.715,1.715V16.331l10.133-.043V14.779a.857.857,0,1,1,1.714,0Zm4.218-6.344L15.25,5.529a.857.857,0,0,0-1.294,1.123L15.25,8.144H8.564a.857.857,0,0,0,0,1.714H15.25L13.956,11.35a.856.856,0,0,0,.086,1.209.834.834,0,0,0,.566.214.854.854,0,0,0,.643-.292l2.537-2.906a.849.849,0,0,0,0-1.123Z" fill="#3e3e3c"/>
  </g>
</svg>
