<svg id="Logo" xmlns="http://www.w3.org/2000/svg" width="30" height="30" viewBox="0 0 30 30">
  <rect id="Rectangle" width="30" height="30" fill="#0086e9"/>
  <g id="Group-3" transform="translate(4.125 4)">
    <g id="Group-2" transform="translate(1.735 1.259)">
      <path id="Path" d="M3.854.75A2.1,2.1,0,0,0,1.729,2.818,2.091,2.091,0,0,0,3.55,4.863V7.25h.607V4.863A2.091,2.091,0,0,0,5.979,2.818,2.1,2.1,0,0,0,3.854.75Z" transform="translate(-1.7 3.896) rotate(-45)" fill="#fff"/>
      <path id="Path-2" data-name="Path" d="M3.018,1.687A1.493,1.493,0,0,1,4.536,3.164,1.493,1.493,0,0,1,3.018,4.642,1.493,1.493,0,0,1,1.5,3.164,1.493,1.493,0,0,1,3.018,1.687Z" transform="translate(-1.354 3.061) rotate(-45)" fill="#0086e9"/>
    </g>
    <g id="Group-2-2" data-name="Group-2" transform="translate(20.125 1.192) rotate(180)">
      <path id="Path-3" data-name="Path" d="M3.854-.75A2.1,2.1,0,0,1,1.729-2.818,2.091,2.091,0,0,1,3.55-4.863V-7.25h.607v2.387A2.091,2.091,0,0,1,5.979-2.818,2.1,2.1,0,0,1,3.854-.75Z" transform="translate(-1.7 -3.896) rotate(45)" fill="#fff"/>
      <path id="Path-4" data-name="Path" d="M3.018-1.687A1.493,1.493,0,0,0,4.536-3.164,1.493,1.493,0,0,0,3.018-4.642,1.493,1.493,0,0,0,1.5-3.164,1.493,1.493,0,0,0,3.018-1.687Z" transform="translate(-1.354 -3.061) rotate(45)" fill="#0086e9"/>
    </g>
    <g id="Group-2-3" data-name="Group-2" transform="translate(1.625 20.192)">
      <path id="Path-5" data-name="Path" d="M3.854-.75A2.1,2.1,0,0,1,1.729-2.818,2.091,2.091,0,0,1,3.55-4.863V-7.25h.607v2.387A2.091,2.091,0,0,1,5.979-2.818,2.1,2.1,0,0,1,3.854-.75Z" transform="translate(-1.7 -3.896) rotate(45)" fill="#fff"/>
      <path id="Path-6" data-name="Path" d="M3.018-1.687A1.493,1.493,0,0,0,4.536-3.164,1.493,1.493,0,0,0,3.018-4.642,1.493,1.493,0,0,0,1.5-3.164,1.493,1.493,0,0,0,3.018-1.687Z" transform="translate(-1.354 -3.061) rotate(45)" fill="#0086e9"/>
    </g>
    <g id="Group-2-4" data-name="Group-2" transform="translate(20.265 20.192) rotate(180)">
      <path id="Path-7" data-name="Path" d="M3.854.75A2.1,2.1,0,0,0,1.729,2.818,2.091,2.091,0,0,0,3.55,4.863V7.25h.607V4.863A2.091,2.091,0,0,0,5.979,2.818,2.1,2.1,0,0,0,3.854.75Z" transform="translate(-1.7 3.896) rotate(-45)" fill="#fff"/>
      <path id="Path-8" data-name="Path" d="M3.018,1.687A1.493,1.493,0,0,1,4.536,3.164,1.493,1.493,0,0,1,3.018,4.642,1.493,1.493,0,0,1,1.5,3.164,1.493,1.493,0,0,1,3.018,1.687Z" transform="translate(-1.354 3.061) rotate(-45)" fill="#0086e9"/>
    </g>
    <g id="Group" transform="translate(8.765)">
      <path id="Path-9" data-name="Path" d="M2.125,0A2.1,2.1,0,0,0,0,2.068,2.091,2.091,0,0,0,1.821,4.113V6.5h.607V4.113A2.091,2.091,0,0,0,4.25,2.068,2.1,2.1,0,0,0,2.125,0Z" fill="#fff"/>
      <path id="Path-10" data-name="Path" d="M2.125.591A1.493,1.493,0,0,1,3.643,2.068,1.493,1.493,0,0,1,2.125,3.545,1.493,1.493,0,0,1,.607,2.068,1.493,1.493,0,0,1,2.125.591Z" fill="#65b5ec"/>
    </g>
    <g id="Group-2-5" data-name="Group" transform="translate(21.75 8.567) rotate(90)">
      <path id="Path-11" data-name="Path" d="M2.125,0A2.1,2.1,0,0,0,0,2.068,2.091,2.091,0,0,0,1.821,4.113V6.5h.607V4.113A2.091,2.091,0,0,0,4.25,2.068,2.1,2.1,0,0,0,2.125,0Z" fill="#fff"/>
      <path id="Path-12" data-name="Path" d="M2.125.591A1.493,1.493,0,0,1,3.643,2.068,1.493,1.493,0,0,1,2.125,3.545,1.493,1.493,0,0,1,.607,2.068,1.493,1.493,0,0,1,2.125.591Z" fill="#65b5ec"/>
    </g>
    <g id="Group-3-2" data-name="Group" transform="translate(0 8.567) rotate(90)">
      <path id="Path-13" data-name="Path" d="M2.125,0A2.1,2.1,0,0,1,0-2.068,2.091,2.091,0,0,1,1.821-4.113V-6.5h.607v2.387A2.091,2.091,0,0,1,4.25-2.068,2.1,2.1,0,0,1,2.125,0Z" fill="#fff"/>
      <path id="Path-14" data-name="Path" d="M2.125-.591A1.493,1.493,0,0,0,3.643-2.068,1.493,1.493,0,0,0,2.125-3.545,1.493,1.493,0,0,0,.607-2.068,1.493,1.493,0,0,0,2.125-.591Z" fill="#65b5ec"/>
    </g>
    <g id="Group-4" data-name="Group" transform="translate(8.875 21.692)">
      <path id="Path-15" data-name="Path" d="M2.125,0A2.1,2.1,0,0,1,0-2.068,2.091,2.091,0,0,1,1.821-4.113V-6.5h.607v2.387A2.091,2.091,0,0,1,4.25-2.068,2.1,2.1,0,0,1,2.125,0Z" fill="#fff"/>
      <path id="Path-16" data-name="Path" d="M2.125-.591A1.493,1.493,0,0,0,3.643-2.068,1.493,1.493,0,0,0,2.125-3.545,1.493,1.493,0,0,0,.607-2.068,1.493,1.493,0,0,0,2.125-.591Z" fill="#65b5ec"/>
    </g>
    <circle id="Oval" cx="3" cy="3" r="3" transform="translate(7.875 7.692)" fill="rgba(216,216,216,0)" stroke="#fff" stroke-width="1"/>
    <circle id="Oval-2" data-name="Oval" cx="1.75" cy="1.75" r="1.75" transform="translate(9.125 8.942)" fill="#fff"/>
  </g>
</svg>
