<svg id="Move" xmlns="http://www.w3.org/2000/svg" width="12" height="12" viewBox="0 0 12 12">
  <path id="Path_110" data-name="Path 110" d="M130.842,54.626l-1.637-1.636a.545.545,0,1,0-.771.771l.705.705h-3.593V50.873l.705.706a.545.545,0,0,0,.771-.771l-1.636-1.637a.545.545,0,0,0-.771,0l-1.637,1.637a.545.545,0,0,0,.771.771l.705-.705v3.593h-3.593l.706-.706a.545.545,0,0,0-.771-.771l-1.637,1.636a.545.545,0,0,0,0,.771l1.637,1.637a.545.545,0,1,0,.771-.771l-.705-.705h3.593V59.15l-.706-.705a.545.545,0,0,0-.771.771l1.636,1.636a.545.545,0,0,0,.771,0l1.636-1.636a.545.545,0,0,0-.771-.771l-.705.705V55.557h3.593l-.705.705a.545.545,0,1,0,.771.771l1.636-1.636a.545.545,0,0,0,0-.771Z" transform="translate(-119.002 -49.011)" fill="#f7f7f7"/>
</svg>
