<svg xmlns="http://www.w3.org/2000/svg" width="15" height="15" viewBox="0 0 15 15">
  <g id="Move" transform="translate(-119.002 -49.011)">
    <path id="Path_110" data-name="Path 110" d="M133.8,56.029l-2.046-2.045a.682.682,0,1,0-.964.964l.881.882h-4.491V51.338l.882.882a.682.682,0,0,0,.964-.964l-2.045-2.046a.681.681,0,0,0-.964,0l-2.046,2.046a.682.682,0,0,0,.964.964l.882-.881V55.83h-4.491l.882-.882a.682.682,0,0,0-.964-.964L119.2,56.029a.681.681,0,0,0,0,.964l2.046,2.046a.682.682,0,1,0,.964-.964l-.881-.882h4.491v4.491l-.882-.882a.682.682,0,0,0-.964.964l2.046,2.046a.681.681,0,0,0,.964,0l2.046-2.046a.682.682,0,0,0-.964-.964l-.882.881v-4.49h4.491l-.882.882a.682.682,0,1,0,.964.964l2.046-2.046a.681.681,0,0,0,0-.964Z" fill="#0086e9"/>
  </g>
</svg>
