<svg id="Profile" xmlns="http://www.w3.org/2000/svg" width="24" height="24" viewBox="0 0 24 24">
  <rect id="Rectangle" width="23" height="23" transform="translate(0.5 0.5)" fill="#979797" stroke="#979797" stroke-width="1" opacity="0"/>
  <g id="Account" transform="translate(3.058 3.665)">
    <path id="Shape" d="M10.925,16.708h-9A1.934,1.934,0,0,1,0,14.781V13.058a1.929,1.929,0,0,1,1.17-1.774L4.884,9.691a.64.64,0,0,1,.508,1.176L1.677,12.461a.645.645,0,0,0-.392.591v1.722a.645.645,0,0,0,.643.643h9a.643.643,0,1,1,0,1.285Zm7.069-1.928V13.058a1.929,1.929,0,0,0-1.17-1.774L13.1,9.691a.642.642,0,1,0-.5,1.182l3.721,1.594a.645.645,0,0,1,.392.591v1.722a.645.645,0,0,1-.643.643H14.793a.643.643,0,1,0,0,1.285h1.279A1.934,1.934,0,0,0,18,14.781Zm-5.141-9V3.856a3.856,3.856,0,1,0-7.712,0V5.784a3.856,3.856,0,1,0,7.712,0ZM11.567,3.856V5.784a2.571,2.571,0,0,1-5.141,0V3.856a2.571,2.571,0,1,1,5.141,0Zm-.257,7.583a.643.643,0,1,0-.771-1.028,2.624,2.624,0,0,1-3.085,0,.643.643,0,1,0-.771,1.028,3.856,3.856,0,0,0,4.627,0Zm1.542,3.984a.643.643,0,1,0,.643.643A.645.645,0,0,0,12.853,15.423Z" fill="#3e3e3c"/>
  </g>
</svg>
