<?xml version="1.0" standalone="no"?>
<!DOCTYPE svg PUBLIC "-//W3C//DTD SVG 20010904//EN"
 "http://www.w3.org/TR/2001/REC-SVG-20010904/DTD/svg10.dtd">
<svg version="1.0" xmlns="http://www.w3.org/2000/svg"
 width="204.000000pt" height="192.000000pt" viewBox="0 0 204.000000 192.000000"
 preserveAspectRatio="xMidYMid meet">

<g transform="translate(0.000000,192.000000) scale(0.100000,-0.100000)"
fill="#000000" stroke="none">
<path d="M716 1482 c-14 -21 -26 -43 -26 -49 0 -7 36 -36 80 -65 46 -30 79
-59 77 -67 -1 -9 -26 -20 -61 -28 -126 -29 -244 -118 -305 -233 -53 -99 -72
-235 -38 -277 5 -7 24 -13 43 -13 40 0 54 21 54 82 0 97 103 244 204 292 56
27 127 37 133 20 2 -6 -19 -45 -47 -88 -27 -42 -50 -83 -50 -90 0 -16 59 -56
82 -56 8 0 63 71 123 158 102 148 135 206 125 215 -21 19 -351 237 -358 237
-5 0 -21 -17 -36 -38z"/>
<path d="M1242 1388 c-15 -15 -16 -122 -2 -149 10 -18 23 -19 183 -19 121 0
177 4 185 12 7 7 12 41 12 84 0 56 -3 73 -16 78 -31 12 -349 7 -362 -6z"/>
<path d="M1067 972 c-12 -13 -17 -37 -17 -80 0 -93 -4 -92 288 -92 149 0 251
4 263 10 16 9 19 22 19 85 0 63 -3 76 -19 85 -12 6 -116 10 -269 10 -228 0
-250 -2 -265 -18z"/>
<path d="M416 548 c-10 -14 -16 -44 -16 -75 0 -72 21 -93 93 -93 80 0 97 17
97 94 0 82 -14 96 -98 96 -52 0 -63 -3 -76 -22z"/>
<path d="M796 554 c-11 -11 -16 -35 -16 -79 0 -100 -22 -95 423 -95 242 0 385
4 398 10 16 9 19 22 19 83 0 44 -5 78 -12 85 -9 9 -113 12 -404 12 -344 0
-395 -2 -408 -16z"/>
</g>
</svg>
