<svg id="Group-6" xmlns="http://www.w3.org/2000/svg" width="24" height="24" viewBox="0 0 24 24">
  <rect id="Rectangle" width="23" height="23" transform="translate(0.5 0.5)" fill="#979797" stroke="#979797" stroke-width="1" opacity="0"/>
  <g id="Save" transform="translate(5 4.665)">
    <path id="Combined-Shape" d="M10.016,0a1.25,1.25,0,0,1,.976.469l2.9,3.626a1.25,1.25,0,0,1,.274.781V13.75A1.25,1.25,0,0,1,12.917,15H1.25A1.25,1.25,0,0,1,0,13.75V1.25A1.25,1.25,0,0,1,1.25,0ZM2.5.833H1.25a.417.417,0,0,0-.417.417h0v12.5a.417.417,0,0,0,.417.417H2.5v-3.75a1.25,1.25,0,0,1,1.25-1.25h6.667a1.25,1.25,0,0,1,1.25,1.25h0v3.75h1.25a.417.417,0,0,0,.417-.417h0V4.876a.417.417,0,0,0-.091-.26h0L10.833,1.6V5.417a1.25,1.25,0,0,1-1.25,1.25H3.75A1.25,1.25,0,0,1,2.5,5.417h0ZM10.417,10H3.75l-.075.007a.417.417,0,0,0-.342.41h0v3.75h7.5v-3.75l-.007-.075a.417.417,0,0,0-.41-.342Zm-.833,2.5a.417.417,0,0,1,0,.833h-5a.417.417,0,0,1,0-.833h5Zm0-1.667a.417.417,0,1,1,0,.833h-5l-.075-.007a.417.417,0,0,1,.075-.827h5ZM6.667.833H3.333V5.417a.417.417,0,0,0,.417.417H9.583A.417.417,0,0,0,10,5.417h0V.833H9.167V3.75a.417.417,0,0,1-.417.417H7.083a.417.417,0,0,1-.417-.417h0Zm1.667,0H7.5v2.5h.833Z" fill="#0086e9"/>
  </g>
</svg>
