<svg id="Group-7" xmlns="http://www.w3.org/2000/svg" width="24" height="24" viewBox="0 0 24 24">
  <rect id="Rectangle" width="23" height="23" transform="translate(0.5 0.5)" fill="#979797" stroke="#979797" stroke-width="1" opacity="0"/>
  <g id="Configuration" transform="translate(3.128 2.665)">
    <path id="Shape" d="M7.5,0a.614.614,0,0,0-.55.614V2.59a6.7,6.7,0,0,0-1.042.435l-1.394-1.4a.614.614,0,0,0-.869,0L1.624,3.651a.613.613,0,0,0,0,.869L3.017,5.914a6.682,6.682,0,0,0-.428,1.042H.614A.614.614,0,0,0,0,7.569v2.864a.614.614,0,0,0,.614.614H2.6a6.689,6.689,0,0,0,.428,1.042l-1.4,1.393a.613.613,0,0,0,0,.863L3.65,16.371a.614.614,0,0,0,.869,0l1.394-1.4a6.694,6.694,0,0,0,1.042.435v1.982A.614.614,0,0,0,7.568,18h2.864a.614.614,0,0,0,.614-.614V15.546a.614.614,0,1,0-1.227,0v1.227H8.182V14.965a.614.614,0,0,0-.473-.6,5.485,5.485,0,0,1-1.6-.658.614.614,0,0,0-.754.089L4.085,15.073,2.927,13.916l1.278-1.272a.614.614,0,0,0,.089-.761,5.5,5.5,0,0,1-.665-1.6.613.613,0,0,0-.594-.467H1.227V8.183H3.036a.614.614,0,0,0,.594-.473,5.5,5.5,0,0,1,.665-1.6.614.614,0,0,0-.089-.754L2.927,4.079,4.085,2.922,5.356,4.2a.614.614,0,0,0,.754.09,5.483,5.483,0,0,1,1.6-.658.614.614,0,0,0,.473-.594V1.228H9.818V3.037a.614.614,0,0,0,.473.594,5.484,5.484,0,0,1,1.6.658.614.614,0,0,0,.754-.09l1.272-1.278,1.157,1.157L13.794,5.357a.614.614,0,0,0-.089.754,5.5,5.5,0,0,1,.665,1.6.614.614,0,0,0,.594.473h1.809V9.819H14.964a.613.613,0,0,0-.594.467,5.486,5.486,0,0,1-.3.895l-.972-.972A4.185,4.185,0,0,0,13.3,9,4.285,4.285,0,0,0,7.607,4.942a.614.614,0,0,0-.237,1.01L9.288,7.87,9.077,9.084l-1.2.2L5.957,7.371a.614.614,0,0,0-1.016.23A4.29,4.29,0,0,0,9,13.3a4.189,4.189,0,0,0,1.208-.2l3.273,3.279a.614.614,0,0,0,.869,0l2.026-2.026a.613.613,0,0,0,0-.863l-1.387-1.387a7.282,7.282,0,0,0,.422-1.048h1.975A.614.614,0,0,0,18,10.433V7.569a.614.614,0,0,0-.614-.614H15.411a6.692,6.692,0,0,0-.428-1.042L16.376,4.52a.613.613,0,0,0,0-.869L14.35,1.624a.614.614,0,0,0-.869,0l-1.394,1.4a6.693,6.693,0,0,0-1.042-.435V.615A.614.614,0,0,0,10.432,0H7.568A.6.6,0,0,0,7.5,0ZM9.089,5.939A3.056,3.056,0,0,1,12.068,9a3.013,3.013,0,0,1-.23,1.151.614.614,0,0,0,.134.671l3.1,3.094-1.157,1.157-3.094-3.1a.614.614,0,0,0-.665-.134A3.056,3.056,0,0,1,5.938,9.084l1.291,1.291a.614.614,0,0,0,.537.173l1.95-.332a.614.614,0,0,0,.5-.5l.332-1.95a.613.613,0,0,0-.173-.537Z" fill="#0086e9"/>
  </g>
</svg>
