<svg xmlns="http://www.w3.org/2000/svg" width="46" height="46" viewBox="0 0 46 46">
  <g id="Shared" transform="translate(772 -4742)">
    <rect id="Rectangle" width="45" height="45" transform="translate(-771.5 4742.5)" fill="#979797" stroke="#979797" stroke-width="1" opacity="0"/>
    <path id="Icon_material-folder-shared" data-name="Icon material-folder-shared" d="M30,9H18L15,6H6A3,3,0,0,0,3.015,9L3,27a3.009,3.009,0,0,0,3,3H30a3.009,3.009,0,0,0,3-3V12A3.009,3.009,0,0,0,30,9Zm-7.5,4.5a3,3,0,1,1-3,3A3.009,3.009,0,0,1,22.5,13.5Zm6,12h-12V24c0-2,4.005-3,6-3s6,1,6,3Z" transform="translate(-767 4747)" fill="#3e3e3c"/>
  </g>
</svg>
