<svg xmlns="http://www.w3.org/2000/svg" width="19.2" height="18.278" viewBox="0 0 19.2 18.278">
  <g id="Share" transform="translate(-3.6 -4.265)">
    <g id="Group_2" data-name="Group 2" transform="translate(3.6 4.265)">
      <path id="Shape" d="M6,10.967a.6.6,0,0,1-.6-.609c0-5.151,2.75-7.743,8.4-7.911V.609a.61.61,0,0,1,.37-.563.594.594,0,0,1,.654.132l4.2,4.265a.615.615,0,0,1,0,.862l-4.2,4.265a.593.593,0,0,1-.654.132.609.609,0,0,1-.37-.563V7.316c-3.4.035-5.367.221-7.29,3.362a.6.6,0,0,1-.51.288ZM15,2.08v.966a.6.6,0,0,1-.6.609c-4.525,0-6.946,1.454-7.61,4.658,2.083-2.179,4.488-2.2,7.6-2.221a.566.566,0,0,1,.427.177A.61.61,0,0,1,15,6.7v.966l2.752-2.794Z" fill="#0086e9"/>
      <path id="Path" d="M15.3,18.278H1.5A1.513,1.513,0,0,1,0,16.754V6.4A1.514,1.514,0,0,1,1.5,4.874H4.2a.609.609,0,0,1,0,1.219H1.5a.3.3,0,0,0-.3.3V16.754a.3.3,0,0,0,.3.3H15.3a.3.3,0,0,0,.3-.3V10.967a.6.6,0,1,1,1.2,0v5.788A1.513,1.513,0,0,1,15.3,18.278Z" fill="#0086e9"/>
    </g>
  </g>
</svg>
