<svg id="User_Analysis" data-name="User Analysis" xmlns="http://www.w3.org/2000/svg" width="24" height="24" viewBox="0 0 24 24">
  <rect id="Rectangle" width="23" height="23" transform="translate(0.5 0.5)" fill="#979797" stroke="#979797" stroke-width="1" opacity="0"/>
  <g id="User-Analysis" transform="translate(4 5)">
    <path id="Path" d="M10.162,3.81A3.81,3.81,0,1,1,6.351,0a3.81,3.81,0,0,1,3.81,3.81" fill="none" stroke="#3e3e3c" stroke-width="1" fill-rule="evenodd"/>
    <path id="Shape" d="M16.093,14.226l-1.411-1.411a3.441,3.441,0,1,0-.642.641l1.411,1.411a.454.454,0,1,0,.642-.642Zm-4.13-.969a2.52,2.52,0,1,1,2.52-2.52,2.523,2.523,0,0,1-2.52,2.52Z" fill="#3e3e3c"/>
    <path id="Path-2" data-name="Path" d="M7.618,9.027a4.5,4.5,0,0,1-4.858-.91.163.163,0,0,0-.181-.028A4.429,4.429,0,0,0,.02,11.507a.156.156,0,0,0,0,.031,3.976,3.976,0,0,0,0,.688.249.249,0,0,0,.014.063C.237,13.152,3.111,14,5.854,14a14.527,14.527,0,0,0,2.558-.226" fill="none" stroke="#3e3e3c" stroke-linecap="round" stroke-width="1" fill-rule="evenodd"/>
  </g>
</svg>
